<?xml version="1.0" encoding="UTF-8"?>
<svg width="227px" height="84px" viewBox="0 0 227 84" version="1.1" xmlns="http://www.w3.org/2000/svg" xmlns:xlink="http://www.w3.org/1999/xlink">
    <!-- Generator: Sketch 51.3 (57544) - http://www.bohemiancoding.com/sketch -->
    <title>powered-by-sep</title>
    <desc>Created with Sketch.</desc>
    <defs></defs>
    <g id="Page-1" stroke="none" stroke-width="1" fill="none" fill-rule="evenodd">
        <g id="powered-by-sep" transform="translate(1.000000, 0.000000)">
            <g id="Group" transform="translate(0.000000, 23.484496)">
                <g transform="translate(26.207386, 16.085271)" fill-rule="nonzero" id="Shape">
                    <path d="M37.1377841,11.677907 L35.5397727,11.677907 C36.1789773,11.677907 36.6903409,11.677907 37.1377841,11.677907 Z" fill="#FFFFFF"></path>
                    <path d="M35.3799716,16.0209302 C35.8913352,16.0209302 36.4346591,16.0209302 37.0099432,16.0209302 C36.4026989,16.0209302 35.859375,16.0209302 35.3799716,16.0209302 Z" fill="#FFFFFF"></path>
                    <path d="M32.1200284,16.0209302 C32.3117898,16.0209302 32.5355114,16.0209302 32.7272727,16.0209302 L33.75,16.0209302 C33.1427557,16.0209302 32.5994318,16.0209302 32.1200284,16.0209302 Z" fill="#FFFFFF"></path>
                    <path d="M33.75,16.0209302 C34.2613636,16.0209302 34.8046875,16.0209302 35.3799716,16.0209302 C34.7727273,16.0209302 34.2294034,16.0209302 33.75,16.0209302 Z" fill="#FFFFFF"></path>
                    <path d="M38.7677557,11.677907 L37.1697443,11.677907 C37.8089489,11.677907 38.3203125,11.677907 38.7677557,11.677907 Z" fill="#FFFFFF"></path>
                    <path d="M35.5078125,11.677907 L33.9098011,11.677907 C34.5490057,11.677907 35.0603693,11.677907 35.5078125,11.677907 Z" fill="#FFFFFF"></path>
                    <g>
                        <path d="M28.7642222,14.4124031 C28.7322222,14.4124031 28.7642222,14.4124031 28.7642222,14.4124031 Z" fill="#FFFFFF"></path>
                        <path d="M30.3302557,14.4124031 L28.7961648,14.4124031 C29.4034091,14.4124031 29.9147727,14.4124031 30.3302557,14.4124031 Z" fill="#FFFFFF"></path>
                        <path d="M37.1377841,11.677907 C36.7223011,11.677907 36.2109375,11.677907 35.6036932,11.677907 L35.571733,11.677907 C36.1789773,11.677907 36.6903409,11.677907 37.1377841,11.677907 Z" fill="#FFFFFF"></path>
                        <path d="M32.1200284,16.0209302 C32.1520284,16.0209302 32.1520284,16.0209302 32.1840284,16.0209302 C32.1520284,16.0209302 32.1520284,16.0209302 32.1200284,16.0209302 Z" fill="#FFFFFF"></path>
                        <path d="M35.3799716,16.0209302 C35.4119716,16.0209302 35.4119716,16.0209302 35.4439716,16.0209302 C35.4439716,16.0209302 35.4119716,16.0209302 35.3799716,16.0209302 Z" fill="#FFFFFF"></path>
                        <path d="M35.5078125,11.677907 C35.0923295,11.677907 34.5809659,11.677907 33.9737216,11.677907 L33.9417614,11.677907 C34.5490057,11.677907 35.0603693,11.677907 35.5078125,11.677907 Z" fill="#FFFFFF"></path>
                        <path d="M38.7677557,11.677907 C38.4161932,11.677907 38.0646307,11.677907 37.7130682,11.677907 L37.2017045,11.677907 C37.8089489,11.677907 38.3522727,11.677907 38.7677557,11.677907 Z" fill="#FFFFFF"></path>
                        <path d="M34.5490852,16.0209302 C34.5170852,16.0209302 34.5170852,16.0209302 34.4850852,16.0209302 C34.5170852,16.0209302 34.5170852,16.0209302 34.5490852,16.0209302 Z" fill="#FFFFFF"></path>
                        <path d="M30.3302557,14.4124031 C29.9147727,14.4124031 29.4034091,14.4124031 28.7961648,14.4124031 L28.7642045,14.4124031 C29.3714489,14.4124031 29.9147727,14.4124031 30.3302557,14.4124031 Z" fill="#FFFFFF"></path>
                        <path d="M33.75,16.0209302 C33.782,16.0209302 33.782,16.0209302 33.814,16.0209302 C33.814,16.0209302 33.782,16.0209302 33.75,16.0209302 Z" fill="#FFFFFF"></path>
                        <path d="M36.2114148,16.0209302 C36.0834148,16.0209302 35.9554148,16.0209302 35.8274148,16.0209302 C35.9874148,16.0209302 36.0834148,16.0209302 36.2114148,16.0209302 Z" fill="#FFFFFF"></path>
                        <path d="M35.0284489,16.0209302 C35.0284489,16.0209302 34.9964489,16.0209302 34.9964489,16.0209302 C34.9964489,16.0209302 34.9964489,16.0209302 35.0284489,16.0209302 Z" fill="#FFFFFF"></path>
                        <path d="M33.8778409,11.677907 C33.462358,11.677907 32.9509943,11.677907 32.34375,11.677907 L32.3117898,11.677907 C32.9190341,11.677907 33.4303977,11.677907 33.8778409,11.677907 Z" fill="#FFFFFF"></path>
                        <path d="M31.9602273,14.4124031 L30.3941761,14.4124031 C31.0014205,14.4124031 31.5447443,14.4124031 31.9602273,14.4124031 Z" fill="#FFFFFF"></path>
                        <path d="M32.1839489,16.0209302 C32.631392,16.0209302 33.1427557,16.0209302 33.75,16.0209302 C33.1747159,16.0209302 32.631392,16.0209302 32.1839489,16.0209302 Z" fill="#FFFFFF"></path>
                        <path d="M34.9650057,16.0209302 C34.8050057,16.0209302 34.6770057,16.0209302 34.5490057,16.0209302 C34.6770057,16.0209302 34.8370057,16.0209302 34.9650057,16.0209302 Z" fill="#FFFFFF"></path>
                        <path d="M32.1200284,16.0209302 C31.9602273,16.0209302 31.7684659,16.0209302 31.6086648,16.0209302 C31.8004261,16.0209302 31.9602273,16.0209302 32.1200284,16.0209302 Z" fill="#FFFFFF"></path>
                        <path d="M37.0099432,16.0209302 C36.7223011,16.0209302 36.4666193,16.0209302 36.2109375,16.0209302 C36.4666193,16.0209302 36.7542614,16.0209302 37.0099432,16.0209302 Z" fill="#FFFFFF"></path>
                        <path d="M35.3804489,16.0209302 C35.2524489,16.0209302 35.1244489,16.0209302 34.9964489,16.0209302 C35.1244489,16.0209302 35.2524489,16.0209302 35.3804489,16.0209302 Z" fill="#FFFFFF"></path>
                        <path d="M33.9418409,11.677907 C33.9418409,11.677907 33.9098409,11.677907 33.9418409,11.677907 L33.8778409,11.677907 C33.8778409,11.677907 33.9098409,11.677907 33.9418409,11.677907 Z" fill="#FFFFFF"></path>
                        <path d="M30.3942557,14.4124031 C30.3942557,14.4124031 30.3942557,14.4124031 30.3942557,14.4124031 L30.3302557,14.4124031 C30.3622557,14.4124031 30.3942557,14.4124031 30.3942557,14.4124031 Z" fill="#FFFFFF"></path>
                        <path d="M33.8139205,16.0209302 C34.037642,16.0209302 34.2613636,16.0209302 34.4850852,16.0209302 C34.2613636,16.0209302 34.037642,16.0209302 33.8139205,16.0209302 Z" fill="#FFFFFF"></path>
                        <path d="M28.7642045,14.4124031 C28.7642045,14.4124031 28.7322443,14.4124031 28.7642045,14.4124031 L27.1661932,14.4124031 C27.7734375,14.4124031 28.3167614,14.4124031 28.7642045,14.4124031 Z" fill="#FFFFFF"></path>
                        <path d="M37.2017841,11.677907 C37.2017841,11.677907 37.1697841,11.677907 37.2017841,11.677907 L37.1377841,11.677907 C37.1697841,11.677907 37.1697841,11.677907 37.2017841,11.677907 Z" fill="#FFFFFF"></path>
                        <path d="M35.443892,16.0209302 C35.571892,16.0209302 35.699892,16.0209302 35.859892,16.0209302 C35.731892,16.0209302 35.571892,16.0209302 35.443892,16.0209302 Z" fill="#FFFFFF"></path>
                        <path d="M35.5718125,11.677907 C35.5718125,11.677907 35.5398125,11.677907 35.5718125,11.677907 L35.5078125,11.677907 C35.5398125,11.677907 35.5398125,11.677907 35.5718125,11.677907 Z" fill="#FFFFFF"></path>
                        <path d="M47.0454545,0.0965116279 L45.4794034,0.0965116279 L45.415483,0.0965116279 L44.5525568,0.0965116279 C37.7769886,0.193023256 18.1534091,0.321705426 13.4232955,9.49031008 C13.4232955,9.49031008 12.7201705,10.5197674 12.7201705,12.0317829 C12.7201705,12.0317829 12.65625,13.8655039 14.3181818,14.8306202 C15.6605114,15.6027132 18.0894886,15.9887597 31.640625,15.9887597 C31.8004261,15.9887597 31.9602273,15.9887597 32.1519886,15.9887597 C32.1839489,15.9887597 32.1839489,15.9887597 32.2159091,15.9887597 C32.6633523,15.9887597 33.1747159,15.9887597 33.7819602,15.9887597 C33.8139205,15.9887597 33.8139205,15.9887597 33.8458807,15.9887597 C34.037642,15.9887597 34.2933239,15.9887597 34.5170455,15.9887597 C34.5490057,15.9887597 34.5490057,15.9887597 34.5809659,15.9887597 C34.7088068,15.9887597 34.868608,15.9887597 34.9964489,15.9887597 C34.9964489,15.9887597 35.0284091,15.9887597 35.0284091,15.9887597 C35.15625,15.9887597 35.2840909,15.9887597 35.4119318,15.9887597 C35.443892,15.9887597 35.443892,15.9887597 35.4758523,15.9887597 C35.6036932,15.9887597 35.7315341,15.9887597 35.8913352,15.9887597 C36.0191761,15.9887597 36.147017,15.9887597 36.274858,15.9887597 C36.5305398,15.9887597 36.7862216,15.9887597 37.0738636,15.9887597 C38.6079545,15.9887597 41.0369318,15.9887597 44.2329545,15.9887597 C49.634233,15.9887597 49.2507102,17.7903101 49.2507102,17.7903101 C49.2507102,23.2271318 33.4943182,23.2271318 33.4943182,23.2271318 L31.928267,23.2271318 L31.8643466,23.2271318 L30.2982955,23.2271318 L30.234375,23.2271318 L28.6683239,23.2271318 L28.6044034,23.2271318 L27.0383523,23.2271318 L10.546875,23.2271318 L8.98082386,23.2271318 L8.91690341,23.2271318 L7.35085227,23.2271318 L7.28693182,23.2271318 L0.287642045,27.570155 L26.9744318,27.570155 L28.540483,27.570155 L28.6044034,27.570155 L29.115767,27.570155 C34.9964489,27.4736434 51.2002841,26.4120155 57.0170455,18.1763566 C57.0170455,18.1763566 57.7201705,17.1468992 57.7201705,15.6348837 C57.7201705,15.6348837 57.7840909,13.8011628 56.1221591,12.8360465 C54.7798295,12.0317829 52.3508523,11.677907 38.7357955,11.677907 C38.2883523,11.677907 37.7769886,11.677907 37.1697443,11.677907 C37.1377841,11.677907 37.1377841,11.677907 37.1058239,11.677907 C36.6583807,11.677907 36.147017,11.677907 35.5397727,11.677907 C35.5078125,11.677907 35.5078125,11.677907 35.4758523,11.677907 C35.0284091,11.677907 34.5170455,11.677907 33.9098011,11.677907 C33.8778409,11.677907 33.8778409,11.677907 33.8458807,11.677907 C33.3984375,11.677907 32.8870739,11.677907 32.2798295,11.677907 C31.0333807,11.677907 30.9055398,11.677907 28.0930398,11.677907 C22.6917614,11.677907 21.1576705,11.1953488 21.2535511,9.87635659 C21.5411932,4.63255814 37.0099432,4.43953488 37.0099432,4.43953488 L38.5759943,4.43953488 L38.6399148,4.43953488 L40.2059659,4.43953488 L40.2698864,4.43953488 L41.8359375,4.43953488 L41.899858,4.43953488 L43.4659091,4.43953488 L60.6285511,4.43953488 L62.1946023,4.43953488 L62.2585227,4.43953488 L63.8245739,4.43953488 L63.8884943,4.43953488 L69.9289773,0.0965116279 L47.0454545,0.0965116279 Z" fill="#535352"></path>
                    </g>
                </g>
                <g transform="translate(133.274148, 16.085271)" fill-rule="nonzero" id="Shape">
                    <g>
                        <polygon fill="#FFFFFF" points="34.0696023 11.677907 29.7869318 16.0209302 29.7869318 16.0209302"></polygon>
                        <polygon fill="#FFFFFF" points="34.0696023 11.677907 30.9694602 11.677907 26.6548295 16.0209302 29.7869318 16.0209302"></polygon>
                        <polygon fill="#FFFFFF" points="30.9694602 11.677907 26.6548295 16.0209302 26.6548295 16.0209302"></polygon>
                        <g>
                            <path d="M40.3338068,11.677907 L49.3785511,11.677907 L52.5106534,11.677907 C52.5106534,11.677907 52.5745739,11.677907 52.7024148,11.677907 L52.446733,11.677907 L43.4019886,11.677907 L40.2698864,11.677907 L34.0696023,11.677907 L37.2017045,11.677907 L40.3338068,11.677907 Z" fill="#FFFFFF"></path>
                            <path d="M74.818892,4.08565891 C74.818892,5.59767442 74.115767,6.62713178 74.115767,6.62713178 C68.3309659,14.8306202 52.2230114,15.9244186 46.2784091,16.0209302 L21.3494318,16.0209302 L25.6321023,11.677907 L47.1732955,11.677907 C47.1732955,11.677907 47.2372159,11.677907 47.3650568,11.677907 L50.2414773,11.677907 C50.2414773,11.677907 65.9978693,11.677907 65.9978693,6.24108527 C65.9978693,6.24108527 66.381392,4.43953488 60.9801136,4.43953488 C55.259233,4.43953488 53.8210227,4.43953488 53.8210227,4.43953488 L32.7911932,4.43953488 L25.6321023,11.677907 L21.3494318,16.0209302 L9.90767045,27.6023256 L0.159801136,27.6023256 L27.3579545,0.128682171 L54.8117898,0.128682171 C69.3536932,0.128682171 71.8785511,0.48255814 73.2528409,1.28682171 C74.8828125,2.25193798 74.818892,4.08565891 74.818892,4.08565891 Z" fill="#535352"></path>
                        </g>
                    </g>
                </g>
                <g transform="translate(56.889205, 27.666667)" fill="#000000" fill-rule="nonzero" id="Shape">
                    <path d="M5.20951705,0.0965116279 L3.61150568,0.0965116279 C4.25071023,0.0965116279 4.79403409,0.0965116279 5.20951705,0.0965116279 Z"></path>
                    <path d="M3.48366477,4.43953488 C3.99502841,4.43953488 4.53835227,4.43953488 5.11363636,4.43953488 C4.47443182,4.43953488 3.93110795,4.43953488 3.48366477,4.43953488 Z"></path>
                    <path d="M0.191761364,4.43953488 C0.383522727,4.43953488 0.607244318,4.43953488 0.799005682,4.43953488 L1.82173295,4.43953488 C1.21448864,4.43953488 0.671164773,4.43953488 0.191761364,4.43953488 Z"></path>
                    <path d="M1.85369318,4.43953488 C2.36505682,4.43953488 2.90838068,4.43953488 3.48366477,4.43953488 C2.84446023,4.43953488 2.30113636,4.43953488 1.85369318,4.43953488 Z"></path>
                    <path d="M6.83948864,0.0965116279 L5.24147727,0.0965116279 C5.88068182,0.0965116279 6.42400568,0.0965116279 6.83948864,0.0965116279 Z"></path>
                    <path d="M3.57954545,0.0965116279 L1.98153409,0.0965116279 C2.62073864,0.0965116279 3.1640625,0.0965116279 3.57954545,0.0965116279 Z"></path>
                </g>
                <path d="M99.7478693,43.6554264 L127.649148,43.6554264 L132.954545,38.2829457 L101.921165,38.5403101 C95.1775568,38.5403101 93.3238636,35.9023256 95.4012784,32.1062016 L111.189631,32.1062016 L130.525568,32.1062016 L139.122869,32.1062016 L143.40554,27.7631783 L114.769176,27.7631783 L99.0127841,27.7631783 C99.0127841,27.7631783 99.0127841,27.7631783 99.0447443,27.7310078 C106.459517,20.6856589 115.088778,20.7178295 122.663352,20.4926357 L141.99929,20.4926357 L150.596591,20.4926357 L154.208097,16.8573643 C154.75142,16.3426357 154.208097,16.8573643 154.879261,16.1817829 L152.769886,16.1817829 L139.698153,16.1817829 L123.078835,16.1817829 C121.800426,16.246124 105.053267,14.9271318 95.8806818,22.0046512 C87.890625,28.1492248 87.2194602,33.4251938 87.3792614,36.8674419 C87.7308239,44.1379845 99.7478693,43.6554264 99.7478693,43.6554264 Z" id="Shape" fill="#535352" fill-rule="nonzero"></path>
                <path d="M223.913352,17.7903101 C223.242188,16.5034884 221.899858,15.4096899 219.982244,14.5089147 C214.836648,12.2891473 206.111506,11.9352713 196.683239,11.9031008 L208.09304,0.128682171 L205.919744,0.128682171 C194.765625,0.160852713 184.570313,0.193023256 175.525568,0.193023256 C113.235085,0.289534884 92.2372159,0.321705426 52.7663352,9.42596899 C42.6988636,11.7422481 30.9375,16.0209302 21.3494318,20.8465116 C13.6150568,24.7713178 3.83522727,29.403876 1.02272727,35.7093023 C-0.0319602273,38.0577519 2.77555756e-16,40.2775194 1.08664773,42.3042636 C1.78977273,43.5910853 3.10014205,44.6848837 5.01775568,45.5856589 C10.0994318,47.8054264 19.0163352,48.255814 28.2208807,48.320155 L17.6420455,59.225969 L19.8153409,59.225969 C19.8153409,59.225969 85.9410511,59.644186 107.961648,59.225969 C131.740057,58.7755814 149.158381,55.9767442 172.233665,50.6686047 C194.0625,45.65 224.584517,32.8139535 224.776278,21.1360465 C224.776278,20.6213178 224.488636,18.8841085 223.913352,17.7903101 Z" id="Shape" stroke="#535352" stroke-width="1.64547196"></path>
                <path d="M27.2940341,48.320155 C27.2940341,48.320155 56.6335227,48.6096899 64.4318182,47.3228682 C64.4318182,47.3228682 72.2620739,46.1003876 76.225142,44.1379845 C80.1882102,42.1755814 82.6491477,40.5670543 85.1420455,37.3821705 C87.5390625,34.2937984 88.3700284,31.9453488 89.009233,31.9453488" id="Shape" stroke="#535352" stroke-width="1.64547196"></path>
                <path d="M152.993608,16.9217054 C152.993608,16.9217054 154.495739,15.5062016 157.819602,14.2193798 C159.129972,13.7046512 160.727983,13.222093 162.613636,12.8682171 C169.357244,11.5813953 173.096591,11.8387597 177.12358,11.8387597 C180.990767,11.8065891 196.81108,11.9031008 196.81108,11.9031008" id="Shape" stroke="#535352" stroke-width="1.64547196"></path>
            </g>
            <g id="Group" transform="translate(58.806818, 0.000000)" fill="#535352" fill-rule="nonzero">
                <path d="M9.07670455,4.34302326 C9.07670455,7.72093023 7.86221591,8.26782946 4.25071023,8.26782946 L2.20525568,8.26782946 L2.20525568,12.6108527 C2.20525568,12.803876 2.14133523,12.8682171 1.94957386,12.8682171 L0.3515625,12.8682171 C0.159801136,12.8682171 0.0958806818,12.803876 0.0958806818,12.6108527 L0.0958806818,0.61124031 C0.0958806818,0.418217054 0.159801136,0.386046512 0.3515625,0.386046512 C1.66193182,0.289534884 3.13210227,0.257364341 4.25071023,0.257364341 C7.83025568,0.257364341 9.07670455,0.997286822 9.07670455,4.34302326 Z M2.20525568,2.09108527 L2.20525568,6.5627907 L4.05894886,6.5627907 C6.36008523,6.5627907 6.96732955,6.36976744 6.96732955,4.3751938 C6.96732955,2.4127907 6.36008523,2.09108527 4.05894886,2.09108527 L2.20525568,2.09108527 Z" id="Shape"></path>
                <path d="M20.678267,6.62713178 C20.678267,11.5170543 19.6235795,12.9325581 15.5646307,12.9325581 C11.5056818,12.9325581 10.4509943,11.4848837 10.4509943,6.62713178 C10.4509943,1.70503876 11.5056818,0.257364341 15.5646307,0.257364341 C19.6235795,0.257364341 20.678267,1.70503876 20.678267,6.62713178 Z M12.5603693,6.62713178 C12.5603693,10.0693798 13.0078125,11.0988372 15.5646307,11.0988372 C18.0894886,11.0988372 18.568892,10.0693798 18.568892,6.62713178 C18.568892,3.15271318 18.0894886,2.09108527 15.5646307,2.09108527 C13.0078125,2.09108527 12.5603693,3.12054264 12.5603693,6.62713178 Z" id="Shape"></path>
                <path d="M38.4481534,0.321705426 C38.6399148,0.321705426 38.7038352,0.386046512 38.671875,0.579069767 L36.5625,11.0023256 C36.2109375,12.7073643 35.9232955,12.9325581 34.2933239,12.9325581 C32.4396307,12.9325581 32.2478693,12.7073643 31.8643466,11.0023256 L30.2663352,4.18217054 L28.6683239,11.0023256 C28.2528409,12.7073643 28.0610795,12.9325581 26.2073864,12.9325581 C24.5774148,12.9325581 24.2897727,12.7073643 23.9382102,11.0023256 L21.8288352,0.579069767 C21.796875,0.353875969 21.8607955,0.321705426 22.0525568,0.321705426 L23.7464489,0.321705426 C23.90625,0.321705426 23.9382102,0.386046512 23.9701705,0.579069767 L25.8877841,10.198062 C26.015625,10.7771318 26.1115057,10.8736434 26.3671875,10.8736434 C26.71875,10.8736434 26.7826705,10.7449612 26.9424716,10.198062 L29.1796875,1.06162791 C29.243608,0.836434109 29.3394886,0.804263566 29.4992898,0.804263566 L31.0973011,0.804263566 C31.2571023,0.804263566 31.352983,0.868604651 31.4169034,1.06162791 L33.6541193,10.198062 C33.8139205,10.7771318 33.8778409,10.8736434 34.2294034,10.8736434 C34.5170455,10.8736434 34.5809659,10.7449612 34.7088068,10.198062 L36.6264205,0.579069767 C36.6583807,0.353875969 36.7223011,0.321705426 36.850142,0.321705426 L38.4481534,0.321705426 Z" id="Shape"></path>
                <path d="M48.515625,0.321705426 C48.6754261,0.321705426 48.7713068,0.418217054 48.7713068,0.579069767 L48.7713068,1.93023256 C48.7713068,2.09108527 48.6754261,2.1875969 48.515625,2.1875969 L42.5071023,2.1875969 L42.5071023,5.85503876 L48.0042614,5.85503876 C48.1640625,5.85503876 48.2599432,5.95155039 48.2599432,6.1124031 L48.2599432,7.39922481 C48.2599432,7.56007752 48.1640625,7.65658915 48.0042614,7.65658915 L42.5071023,7.65658915 L42.5071023,11.0666667 L48.515625,11.0666667 C48.6754261,11.0666667 48.7713068,11.1631783 48.7713068,11.324031 L48.7713068,12.6751938 C48.7713068,12.8360465 48.6754261,12.9325581 48.515625,12.9325581 L40.6534091,12.9325581 C40.493608,12.9325581 40.3977273,12.8360465 40.3977273,12.6751938 L40.3977273,0.579069767 C40.3977273,0.418217054 40.493608,0.321705426 40.6534091,0.321705426 L48.515625,0.321705426 Z" id="Shape"></path>
                <path d="M59.7336648,4.34302326 C59.7336648,6.88449612 59.0625,7.81744186 57.1448864,8.13914729 L59.8934659,12.5465116 C60.0213068,12.7395349 59.9573864,12.8682171 59.7017045,12.8682171 L58.1995739,12.8682171 C57.8160511,12.8682171 57.7201705,12.7395349 57.5603693,12.5143411 L54.8757102,8.26782946 L52.8941761,8.3 L52.8941761,12.6430233 C52.8941761,12.8360465 52.8302557,12.9003876 52.6384943,12.9003876 L51.040483,12.9003876 C50.8487216,12.9003876 50.7848011,12.8360465 50.7848011,12.6430233 L50.7848011,0.61124031 C50.7848011,0.418217054 50.8487216,0.386046512 51.040483,0.386046512 C52.3508523,0.289534884 53.8210227,0.257364341 54.9396307,0.257364341 C58.5191761,0.257364341 59.7336648,0.997286822 59.7336648,4.34302326 Z M52.8622159,2.09108527 L52.8622159,6.5627907 L54.7159091,6.5627907 C57.0170455,6.5627907 57.6242898,6.36976744 57.6242898,4.3751938 C57.6242898,2.4127907 57.0170455,2.09108527 54.7159091,2.09108527 L52.8622159,2.09108527 Z" id="Shape"></path>
                <path d="M69.897017,0.321705426 C70.0568182,0.321705426 70.1526989,0.418217054 70.1526989,0.579069767 L70.1526989,1.93023256 C70.1526989,2.09108527 70.0568182,2.1875969 69.897017,2.1875969 L63.8884943,2.1875969 L63.8884943,5.85503876 L69.3856534,5.85503876 C69.5454545,5.85503876 69.6413352,5.95155039 69.6413352,6.1124031 L69.6413352,7.39922481 C69.6413352,7.56007752 69.5454545,7.65658915 69.3856534,7.65658915 L63.8884943,7.65658915 L63.8884943,11.0666667 L69.897017,11.0666667 C70.0568182,11.0666667 70.1526989,11.1631783 70.1526989,11.324031 L70.1526989,12.6751938 C70.1526989,12.8360465 70.0568182,12.9325581 69.897017,12.9325581 L62.0348011,12.9325581 C61.875,12.9325581 61.7791193,12.8360465 61.7791193,12.6751938 L61.7791193,0.579069767 C61.7791193,0.418217054 61.875,0.321705426 62.0348011,0.321705426 L69.897017,0.321705426 Z" id="Shape"></path>
                <path d="M82.1697443,6.59496124 C82.1697443,11.0666667 80.7634943,12.9325581 76.9921875,12.9325581 C75.4900568,12.9325581 73.7002841,12.8682171 72.3899148,12.7717054 C72.1981534,12.7395349 72.134233,12.7395349 72.134233,12.5465116 L72.134233,0.61124031 C72.134233,0.418217054 72.1981534,0.386046512 72.3899148,0.386046512 C73.7002841,0.289534884 75.4900568,0.257364341 76.9921875,0.257364341 C80.7634943,0.257364341 82.1697443,2.12325581 82.1697443,6.59496124 Z M74.2755682,2.09108527 L74.2755682,11.0988372 L77.0241477,11.0988372 C79.2613636,11.0988372 80.0923295,9.74767442 80.0923295,6.59496124 C80.0923295,3.44224806 79.2294034,2.09108527 76.8643466,2.09108527 L74.2755682,2.09108527 Z" id="Shape"></path>
                <path d="M96.6796875,3.73178295 C96.6796875,5.37248062 96.2322443,6.30542636 95.0816761,6.5627907 L95.0816761,6.62713178 C96.5838068,6.85232558 96.9992898,7.97829457 96.9992898,9.58682171 C96.9992898,12.3213178 95.5610795,12.9968992 92.7805398,12.9968992 C91.6619318,12.9968992 89.296875,12.9325581 87.9865057,12.8360465 C87.7947443,12.803876 87.7308239,12.7717054 87.7308239,12.6108527 L87.7308239,0.61124031 C87.7308239,0.418217054 87.7947443,0.386046512 87.9865057,0.386046512 C89.296875,0.289534884 91.2144886,0.257364341 92.3330966,0.257364341 C95.3053977,0.257364341 96.6796875,1.06162791 96.6796875,3.73178295 Z M89.8401989,2.09108527 L89.8401989,5.79069767 L91.693892,5.79069767 C93.8352273,5.79069767 94.634233,5.6620155 94.634233,3.95697674 C94.634233,2.4127907 93.8671875,2.05891473 92.1732955,2.05891473 L89.8401989,2.05891473 L89.8401989,2.09108527 Z M89.8401989,7.39922481 L89.8401989,11.1310078 L92.7166193,11.1310078 C94.21875,11.1310078 94.921875,10.8093023 94.921875,9.36162791 C94.921875,7.75310078 94.1228693,7.39922481 92.7485795,7.39922481 L89.8401989,7.39922481 Z" id="Shape"></path>
                <path d="M108.28125,0.321705426 C108.504972,0.321705426 108.600852,0.418217054 108.473011,0.675581395 L104.03054,8.94341085 L104.03054,12.6108527 C104.03054,12.803876 103.934659,12.8682171 103.774858,12.8682171 L102.176847,12.8682171 C102.017045,12.8682171 101.921165,12.7717054 101.921165,12.6108527 L101.921165,8.94341085 L97.4786932,0.707751938 C97.318892,0.450387597 97.4147727,0.353875969 97.6704545,0.353875969 L99.428267,0.353875969 C99.6839489,0.353875969 99.7798295,0.450387597 99.8757102,0.61124031 L102.975852,6.7879845 L106.075994,0.61124031 C106.171875,0.418217054 106.267756,0.353875969 106.523438,0.353875969 L108.28125,0.353875969 L108.28125,0.321705426 Z" id="Shape"></path>
            </g>
        </g>
    </g>
</svg>